<svg xmlns="http://www.w3.org/2000/svg" width="1000" height="1000" viewBox="0 0 1000 1000"><path fill-rule="evenodd" d="M533 390.77c0 27.16.06 54.3-.06 81.47-.02 3.8.86 6.18 4.28 8.5 24.43 16.65 33.95 46.96 23.77 74.54-10 27.05-37.9 44.55-66.2 41.5-29.7-3.2-52.9-25.06-57-54.32-3.6-25.78 5.8-46.37 26.7-61.57 3.4-2.5 4.5-4.9 4.5-8.9-.2-54-.2-108-.1-162 0-18.7 13.7-32.9 31.6-33.1 17.7-.2 32.2 13.9 32.3 31.8.1 27.3 0 54.6 0 81.9zm160-32c0 16.84.07 33.67-.06 50.5-.03 3.1.76 5 3.5 6.87 24.46 16.63 34.5 46.08 25.25 73.28-9.3 27.3-35.2 44.8-64.4 43.52-26.6-1.17-50.3-20.15-57.9-46.2-7.6-26.4 2.2-54.23 25-69.88 3.44-2.37 4.53-4.78 4.5-8.87-.2-33-.2-66-.1-99 .04-15.8 10.73-28.4 26.15-31.5 14.52-2.9 29.6 5.1 35.2 19.1 1.6 4 2.4 8.7 2.5 13.1.27 16.3.1 32.6.1 48.9zM373 327.1c0 6 .16 12-.06 18-.13 3.3.9 5.2 3.74 7.24 22.23 15.94 32.16 37.72 26.98 64.65-5.07 26.3-21.63 43.4-47.8 50.1-29.96 7.6-60.73-7.9-73.38-36.2-12.44-27.8-3.4-60.5 21.93-77.9 3.7-2.6 4.8-5.1 4.7-9.3-.2-11.4-.1-22.7 0-34 .2-18.5 14-32.7 32-32.8 17.98-.1 31.9 14.1 32.1 32.6.06 5.8 0 11.6 0 17.5zm0 168.35v38.72c0 52.98.12 105.96-.08 158.94-.05 13.6-6.73 23.6-19.16 29.1-12.28 5.5-23.87 3.4-33.98-5.3-7.64-6.5-10.82-15.2-10.8-25.3.05-61.3.02-122.6.02-183.9v-12.2c21.35 7.3 42.28 7.4 64 0zm320.02 63.95v55.86c0 25.48 0 50.95-.02 76.43-.03 18.8-13.84 33.3-31.85 33.3-18.2 0-32.1-14.2-32.14-33V559.2c21.3 7.4 42.4 7.64 64.1.1zM469 623.47c21.57 7.3 42.5 7.3 63.72.1.12 1.98.27 3.4.27 4.85v63.95c-.1 18.37-14.2 32.7-32.1 32.63-18-.07-31.9-14.24-32-32.7-.1-22.65 0-45.28 0-68.83z" clip-rule="evenodd"/></svg>